<?xml version="1.0" encoding="UTF-8"?>
<svg xmlns="http://www.w3.org/2000/svg" xmlns:xlink="http://www.w3.org/1999/xlink" width="594.276pt" height="841.89pt" viewBox="0 0 594.276 841.89">
<path fill-rule="nonzero" fill="rgb(0%, 0%, 0%)" fill-opacity="1" d="M 212.988281 209.941406 C 211.960938 201.496094 210.628906 196.328125 207.164062 214.097656 C 206.847656 215.289062 206.550781 216.480469 206.269531 217.667969 C 200.011719 241.089844 200.246094 264.089844 199.324219 286.796875 C 199.472656 304.261719 204.210938 301.964844 208.421875 293.027344 C 212.984375 281.152344 218.046875 246.457031 214.429688 217.667969 C 214.019531 215.035156 213.542969 212.453125 212.988281 209.941406 "/>
<path fill-rule="nonzero" fill="rgb(0%, 0%, 0%)" fill-opacity="1" d="M 384.089844 283.867188 C 382.210938 262.0625 381.351562 239.949219 374.90625 217.667969 C 374.367188 215.597656 373.785156 213.527344 373.144531 211.453125 C 368.953125 193.832031 367.894531 199.046875 367.285156 207.527344 C 366.730469 210.808594 366.3125 214.203125 366.007812 217.667969 C 364.347656 246.089844 370.679688 279.058594 375.535156 290.445312 C 380.046875 299.226562 384.765625 301.34375 384.089844 283.867188 "/>
</svg>
