<?xml version="1.0" encoding="UTF-8"?>
<svg xmlns="http://www.w3.org/2000/svg" xmlns:xlink="http://www.w3.org/1999/xlink" width="595.276pt" height="841.89pt" viewBox="0 0 595.276 841.89">
<path fill-rule="evenodd" fill="rgb(0%, 0%, 0%)" fill-opacity="1" d="M 280.351562 368.585938 C 292.488281 362.972656 293.992188 372.09375 293.566406 377.90625 C 293.351562 396.148438 293.136719 414.390625 292.917969 432.632812 C 291.847656 439.347656 289.484375 447.566406 271.972656 448.867188 C 246.191406 451.675781 225.890625 414.1875 242.324219 405.269531 C 256.933594 399.957031 266.710938 373.597656 280.351562 368.585938 "/>
<path fill-rule="evenodd" fill="rgb(0%, 0%, 0%)" fill-opacity="1" d="M 314.179688 368.585938 C 302.039062 362.972656 300.535156 372.09375 300.964844 377.90625 C 301.179688 396.148438 301.394531 414.390625 301.609375 432.632812 C 302.683594 439.347656 305.046875 447.566406 322.558594 448.867188 C 348.339844 451.675781 368.640625 414.1875 352.207031 405.269531 C 337.597656 399.957031 327.820312 373.597656 314.179688 368.585938 "/>
</svg>
