<?xml version="1.0" encoding="UTF-8"?>
<svg xmlns="http://www.w3.org/2000/svg" xmlns:xlink="http://www.w3.org/1999/xlink" width="595.276pt" height="841.89pt" viewBox="0 0 595.276 841.89">
<path fill-rule="evenodd" fill="rgb(77.598572%, 77.598572%, 77.2995%)" fill-opacity="1" d="M 327.292969 323.191406 C 328.894531 331.800781 329.917969 340.273438 330.097656 348.546875 C 330.144531 354.632812 332.148438 353.851562 331.832031 344.53125 C 332.316406 337.886719 329.316406 321.226562 327.292969 323.191406 M 328.546875 293.078125 C 330.589844 288.652344 332.632812 284.222656 334.675781 279.796875 C 337.03125 275.886719 340.960938 272.269531 346.460938 268.949219 C 340.066406 276.320312 333.347656 283.617188 332.082031 292.191406 C 329.960938 298.097656 328.78125 298.390625 328.546875 293.078125 M 280.839844 110.148438 L 282.007812 110.148438 C 283.753906 116.464844 286.636719 120.773438 291.734375 124.035156 C 293.457031 125.136719 295.507812 126.027344 296.796875 127.6875 C 286.453125 128.011719 279.960938 121.578125 280.839844 110.148438 M 281.230469 84.207031 C 277.8125 83.75 277.714844 80.015625 274.226562 79.460938 C 269.859375 78.761719 263.648438 82.945312 262.941406 86.035156 C 261.671875 91.636719 267.957031 99.582031 271.113281 102.113281 C 272.917969 103.554688 276.210938 103.914062 276.949219 106.496094 C 274.152344 106.550781 270.410156 105.527344 268 103.9375 C 264.316406 101.507812 258.257812 92.691406 259.050781 86.402344 C 260.277344 76.691406 281.605469 70.25 281.230469 84.207031 M 276.171875 323.515625 L 277.339844 323.515625 C 281.371094 325.453125 281.285156 334.199219 277.730469 336.667969 C 275.386719 336.332031 276.992188 333.828125 276.949219 332.285156 C 276.878906 329.574219 276.542969 326.625 275.785156 324.613281 C 275.671875 324.019531 276.152344 323.980469 276.171875 323.515625 M 315.859375 41.097656 C 299.90625 26.570312 259.242188 28.210938 245.824219 44.019531 C 240.933594 49.78125 237.566406 60.550781 236.875 69.59375 C 235.84375 83.085938 241.84375 93.78125 246.601562 101.746094 C 248.363281 104.691406 251.328125 108.007812 251.660156 111.246094 C 253.683594 130.976562 252.675781 148.746094 244.265625 161.664062 C 241.808594 165.441406 239.050781 168.707031 236.875 172.625 C 234.695312 176.546875 232.207031 180.332031 230.261719 184.679688 C 226.652344 192.730469 225.722656 205.441406 224.421875 215.371094 C 223.746094 220.53125 223.003906 226.21875 223.253906 232.175781 C 223.472656 237.242188 223.714844 243.453125 225.589844 248.253906 C 227.394531 252.867188 231.007812 257.257812 233.761719 261.40625 C 236.683594 265.808594 239.355469 270.070312 242.320312 274.191406 C 239.5625 266.019531 244.207031 257.332031 242.710938 248.984375 C 242.21875 246.242188 239.96875 243.253906 238.429688 240.214844 C 233.082031 229.667969 227.671875 217.5 229.09375 201.488281 C 230.003906 191.214844 236.632812 179.910156 244.65625 174.453125 C 246.398438 173.265625 248.777344 172.210938 250.882812 171.164062 C 252.730469 170.242188 255.265625 168.367188 257.496094 169.335938 C 253.699219 172.984375 250.042969 173.929688 246.601562 177.007812 C 238.792969 184 232.59375 193.792969 232.59375 205.871094 C 232.59375 213.804688 234.269531 222.007812 237.261719 228.886719 C 238.671875 232.128906 240.339844 235.238281 241.933594 238.386719 C 243.566406 241.617188 245.347656 244.898438 246.210938 248.253906 C 247.457031 253.089844 245.703125 258.671875 245.433594 263.230469 C 244.210938 283.976562 257.101562 296.078125 260.21875 313.652344 C 260.824219 315.257812 262.917969 311.742188 263.71875 314.382812 C 259.382812 321.453125 262.25 330.972656 266.832031 336.667969 C 268.984375 339.335938 273.316406 340.695312 273.058594 343.976562 C 271.109375 345.15625 267.609375 340.171875 266.832031 341.78125 C 271.042969 363.695312 280.882812 379.738281 293.683594 395.125 C 299.472656 402.085938 305.996094 409 311.96875 417.410156 C 315.664062 422.617188 320.234375 429.835938 324.03125 435.679688 C 325.429688 437.832031 327.875 439.90625 328.308594 441.523438 C 329.617188 446.375 327.308594 453.261719 327.921875 459.425781 C 328.183594 462.074219 329.273438 464.507812 329.480469 466.734375 C 329.832031 470.582031 327.984375 474.621094 330.253906 478.058594 C 332.21875 479.082031 333.84375 478.046875 335.703125 479.15625 C 337.703125 480.34375 337.292969 482.9375 339.207031 484.269531 C 342.058594 484.246094 343.546875 483.398438 345.429688 483.90625 C 348.160156 484.640625 348.035156 486.964844 350.488281 488.289062 C 352.117188 487.839844 354.433594 487.179688 357.492188 487.558594 C 359.871094 487.855469 360.945312 489.191406 362.550781 489.019531 C 366.347656 488.617188 367.480469 483.636719 367.996094 479.886719 C 368.296875 477.699219 368.179688 475.398438 368.773438 473.308594 C 369.730469 469.964844 371.546875 468.039062 371.5 465.273438 C 371.386719 459.042969 363.769531 449.433594 360.992188 445.542969 C 347.824219 427.074219 334.457031 412.1875 327.921875 387.816406 C 325.71875 379.617188 323.886719 371.414062 322.085938 363.703125 C 320.140625 355.386719 318.578125 347.34375 315.46875 340.320312 C 312.433594 333.457031 308.234375 327.066406 304.574219 320.957031 C 300.867188 314.765625 294.222656 309.007812 295.238281 300.863281 C 297.273438 299.992188 297.429688 304.152344 297.960938 302.324219 C 301.902344 287.445312 299.871094 265.667969 296.796875 251.175781 C 295.605469 245.570312 293.472656 239.984375 293.683594 235.101562 C 293.910156 229.757812 299.910156 217.914062 304.574219 217.929688 C 307.890625 217.9375 310.269531 221.257812 310.023438 224.140625 C 307.210938 224.101562 307.328125 221.3125 304.1875 221.582031 C 301.941406 225.4375 297.976562 229.539062 297.570312 234.734375 C 297.160156 240.042969 299.867188 246.53125 301.074219 253.367188 C 304.101562 270.488281 305.25 292.285156 300.683594 308.535156 C 308.539062 321.09375 318.941406 334.664062 323.25 351.28125 C 327.710938 368.472656 329.96875 386.480469 337.261719 402.066406 C 341.488281 388.8125 346.554688 374.746094 348.933594 359.683594 C 349.753906 354.488281 350.820312 348.519531 350.488281 343.246094 C 350.300781 340.289062 348.117188 337.3125 348.152344 334.109375 C 348.1875 331.128906 349.914062 328.179688 350.488281 325.34375 C 351.101562 322.296875 351.816406 318.867188 351.65625 315.476562 C 351.503906 312.296875 349.628906 309.113281 349.320312 305.613281 C 349.117188 303.3125 349.882812 301.234375 350.097656 298.671875 C 350.636719 292.367188 348.988281 285.34375 349.320312 279.308594 C 349.664062 273.089844 352.269531 267.734375 351.65625 261.769531 C 350.84375 253.910156 347.238281 247.714844 345.820312 239.847656 C 333.515625 246.804688 319.917969 236.609375 316.25 227.792969 C 322.03125 231.421875 327.839844 239.363281 337.648438 238.753906 C 344.699219 238.320312 347.28125 232.203125 347.375 225.964844 C 347.5625 213.492188 340.503906 202.910156 334.148438 194.179688 C 330.953125 189.792969 327.261719 185.894531 323.640625 182.125 C 321.875 180.28125 319.855469 178.160156 317.804688 176.644531 C 315.433594 174.886719 312.738281 173.972656 310.800781 171.894531 C 309.628906 170.632812 309.230469 168.386719 307.6875 166.414062 C 305.425781 163.511719 301.878906 162.546875 301.074219 159.835938 C 299.582031 154.824219 303.550781 149.757812 303.796875 145.222656 C 303.9375 142.644531 302.8125 140.316406 303.019531 137.917969 C 303.316406 134.507812 305.113281 131.054688 308.46875 129.511719 C 315.496094 126.285156 321.898438 131.128906 329.867188 126.957031 C 332.695312 122.394531 328.742188 119.421875 328.308594 114.898438 C 327.925781 110.867188 329.707031 109.339844 330.253906 106.496094 C 330.613281 104.660156 330.871094 101.933594 330.644531 99.917969 C 330.375 97.527344 328.113281 95.792969 329.085938 93.34375 C 331.605469 91.632812 335.289062 93.199219 336.09375 90.421875 C 336.632812 88.539062 333.011719 84.464844 331.035156 82.015625 C 328.957031 79.445312 326.066406 76.960938 325.585938 73.980469 C 324.964844 70.113281 326.535156 68.558594 328.308594 64.117188 C 323.535156 55.625 322.277344 46.941406 315.859375 41.097656 M 267.222656 775.824219 C 269.636719 777.230469 268.703125 780.75 269.167969 783.496094 C 270.089844 788.9375 271.605469 791.769531 278.507812 791.898438 C 277.089844 793.777344 272.65625 794.230469 270.722656 793.722656 C 264.933594 792.203125 265.984375 781.296875 267.222656 775.824219 M 259.050781 358.953125 C 255.929688 365.34375 250.457031 370.527344 246.988281 376.855469 C 243.65625 382.949219 240.953125 390.191406 238.820312 398.046875 C 236.78125 405.554688 233.839844 413.980469 234.152344 422.890625 C 234.460938 431.726562 238.632812 439.589844 242.710938 446.273438 C 244.75 449.617188 247.46875 452.378906 248.9375 456.136719 C 251.117188 461.726562 250.101562 468.765625 250.101562 476.230469 C 250.101562 501.796875 249.546875 527.9375 252.4375 550.765625 C 253.601562 559.949219 255.921875 569.472656 255.160156 579.261719 C 254.851562 583.257812 253.898438 587.519531 252.828125 591.320312 C 251.734375 595.183594 250.625 599.148438 249.324219 602.644531 C 246.792969 609.449219 242.394531 615.699219 238.820312 622.007812 C 231.398438 635.105469 224.421875 649.261719 224.421875 666.945312 C 224.421875 678.445312 227.46875 688.433594 231.039062 698 C 240.632812 723.726562 255.621094 743.632812 259.050781 775.089844 C 259.410156 778.363281 260.285156 781.859375 259.828125 783.859375 C 259.566406 785.023438 258.316406 786.128906 257.496094 787.511719 C 255.375 791.085938 252.984375 796.261719 253.605469 801.394531 C 254.117188 805.628906 257.5625 811.078125 260.996094 811.992188 C 262.914062 812.5 265.824219 811.671875 269.558594 811.261719 C 286.355469 809.40625 304.027344 811.183594 318.582031 812.355469 C 325.210938 812.894531 331.4375 814.484375 336.871094 814.550781 C 339.144531 814.578125 341.535156 813.460938 344.261719 813.453125 C 347.34375 813.449219 349.300781 814.832031 351.65625 814.183594 C 354.535156 813.390625 356.640625 810.785156 356.324219 806.875 C 353.15625 805.042969 349.1875 805.757812 345.820312 805.414062 C 334.703125 804.285156 330.078125 800.675781 322.472656 795.917969 C 313.226562 790.125 305.394531 785.78125 296.796875 779.476562 C 292.609375 776.40625 287.746094 772.632812 285.898438 769.246094 C 283.671875 765.152344 282.679688 758.746094 281.621094 752.4375 C 278.546875 734.15625 276.328125 713.308594 278.898438 693.980469 C 280.40625 682.632812 283.59375 670.328125 284.730469 657.449219 C 285.261719 651.453125 285.792969 644.539062 286.289062 637.71875 C 286.785156 630.890625 286.78125 623.589844 288.625 618.71875 C 289.683594 615.921875 292.878906 613.289062 294.460938 609.953125 C 295.605469 607.527344 295.703125 604.777344 296.796875 602.644531 C 298.390625 599.53125 302.097656 597.40625 303.019531 594.605469 C 304.671875 589.582031 304.414062 576.453125 301.460938 574.878906 C 301.078125 574.671875 299.460938 575.921875 299.515625 574.148438 C 303.613281 567.9375 308.175781 562.042969 311.191406 554.785156 C 314.167969 547.601562 316.460938 539.625 318.972656 531.765625 C 323.96875 516.113281 328.394531 499.433594 331.8125 482.808594 C 331.527344 481.253906 330.140625 482.339844 329.480469 482.078125 C 328.902344 481.851562 328.472656 481.097656 327.921875 480.617188 C 324.183594 477.351562 326.167969 473.023438 325.976562 468.195312 C 325.890625 466.023438 324.730469 463.382812 324.421875 460.886719 C 323.644531 454.65625 325.566406 447.777344 324.421875 442.984375 C 324.042969 441.410156 321.949219 438.980469 320.527344 436.773438 C 319.152344 434.636719 317.808594 432.316406 316.636719 430.5625 C 308.277344 418.058594 298.359375 406.519531 289.789062 396.21875 C 283.371094 388.5 278.195312 380.375 273.449219 371.742188 C 268.636719 362.996094 264.238281 353.136719 263.332031 341.417969 C 263.3125 341.195312 263.277344 340.984375 262.941406 341.050781 C 261.136719 346.839844 261.429688 354.089844 259.050781 358.953125 "/>
</svg>
